<svg version="1.1" xmlns="http://www.w3.org/2000/svg" x="0px" y="0px" viewBox="0 0 300 450" xml:space="preserve"><path d="M135.727,152.993c-6.848,0-12.42,5.572-12.42,12.42s5.572,12.42,12.42,12.42c6.849,0,12.42-5.572,12.42-12.42s-5.571-12.42-12.42-12.42zm0,18.841c-3.54,0-6.42-2.88-6.42-6.42s2.88-6.42,6.42-6.42,6.42,2.88,6.42,6.42-2.88,6.42-6.42,6.42zm41.063,7.208c6.849,0,12.42-5.572,12.42-12.42,0-6.849-5.571-12.42-12.42-12.42s-12.42,5.572-12.42,12.42c0,6.848,5.571,12.42,12.42,12.42zm0-18.841c3.54,0,6.42,2.88,6.42,6.42s-2.88,6.42-6.42,6.42-6.42-2.88-6.42-6.42,2.88-6.42,6.42-6.42zm113.21-147.201h-277v424h277v6h-283v-436h283v6zm-133.64,360.745v-135.6c31.165-1.568,56.038-27.415,56.038-58.963,0-32.554-26.484-59.039-59.038-59.039-32.554,0-59.039,26.484-59.039,59.039,0,31.548,24.873,57.395,56.039,58.963v135.601h6zm-56.039-194.563c0-29.246,23.793-53.039,53.039-53.039,29.245,0,53.038,23.793,53.038,53.039s-23.793,53.039-53.038,53.039c-29.245,0-53.039-23.794-53.039-53.039z"/></svg>