<svg version="1.1" xmlns="http://www.w3.org/2000/svg" x="0px" y="0px" viewBox="0 0 300 450" xml:space="preserve"><path d="M153.36,238.221c-32.554,0-59.039-26.485-59.039-59.039s26.485-59.039,59.039-59.039c32.554,0,59.038,26.484,59.038,59.039s-26.484,59.039-59.038,59.039zm0-112.078c-29.246,0-53.039,23.793-53.039,53.039s23.793,53.039,53.039,53.039c29.245,0,53.038-23.793,53.038-53.039s-23.793-53.039-53.038-53.039zm-17.633,51.691c-6.848,0-12.42-5.572-12.42-12.42s5.572-12.42,12.42-12.42c6.849,0,12.42,5.572,12.42,12.42s-5.571,12.42-12.42,12.42zm0-18.841c-3.54,0-6.42,2.88-6.42,6.42s2.88,6.42,6.42,6.42,6.42-2.88,6.42-6.42-2.88-6.42-6.42-6.42zm41.063,20.049c-6.849,0-12.42-5.572-12.42-12.42,0-6.849,5.571-12.42,12.42-12.42s12.42,5.572,12.42,12.42c0,6.848-5.571,12.42-12.42,12.42zm0-18.841c-3.54,0-6.42,2.88-6.42,6.42s2.88,6.42,6.42,6.42,6.42-2.88,6.42-6.42-2.88-6.42-6.42-6.42zm113.21,282.799h-283v-436h283v6h-277v424h277v6z"/></svg>