<svg version="1.1" xmlns="http://www.w3.org/2000/svg" x="0px" y="0px" viewBox="0 0 300 450" xml:space="preserve"><path d="M135.727,152.993c-6.848,0-12.42,5.572-12.42,12.42s5.572,12.42,12.42,12.42c6.849,0,12.42-5.572,12.42-12.42s-5.571-12.42-12.42-12.42zm0,18.841c-3.54,0-6.42-2.88-6.42-6.42s2.88-6.42,6.42-6.42,6.42,2.88,6.42,6.42-2.88,6.42-6.42,6.42zm41.063,7.208c6.849,0,12.42-5.572,12.42-12.42,0-6.849-5.571-12.42-12.42-12.42s-12.42,5.572-12.42,12.42c0,6.848,5.571,12.42,12.42,12.42zm0-18.841c3.54,0,6.42,2.88,6.42,6.42s-2.88,6.42-6.42,6.42-6.42-2.88-6.42-6.42,2.88-6.42,6.42-6.42zm113.21-147.201v-6h-283v436h283v-6h-277v-424h135.715l1.601,107.221c-31.145,1.589-55.995,27.427-55.995,58.961,0,31.548,24.873,57.395,56.039,58.963v20.063l-56.711,28.603,2.702,5.357,54.009-27.241v107.349l-65.37,50.67,3.676,4.742,64.335-49.867,52.114,57.679,4.451-4.022-53.206-58.887v-106.419l49.589,25.975,2.784-5.314-52.372-27.433v-21.255c31.165-1.568,56.038-27.415,56.038-58.963,0-31.563-24.896-57.418-56.081-58.964l-1.602-107.218h135.284zm-83.602,166.182c0,29.246-23.793,53.039-53.038,53.039-29.246,0-53.039-23.793-53.039-53.039s23.793-53.039,53.039-53.039c29.245,0,53.038,23.793,53.038,53.039z"/></svg>