<svg version="1.1" xmlns="http://www.w3.org/2000/svg" x="0px" y="0px" viewBox="0 0 300 450" xml:space="preserve"><path d="M212.398,179.182c0-32.554-26.484-59.039-59.038-59.039-32.554,0-59.039,26.484-59.039,59.039,0,31.548,24.873,57.395,56.039,58.963v20.063l-56.711,28.603,2.702,5.357,54.009-27.241v108.817h6v-107.572l49.589,25.975,2.784-5.314-52.372-27.433v-21.255c31.165-1.568,56.037-27.415,56.037-58.963zm-112.077,0c0-29.246,23.793-53.039,53.039-53.039,29.245,0,53.038,23.793,53.038,53.039s-23.793,53.039-53.038,53.039c-29.245,0-53.039-23.794-53.039-53.039zm35.406-26.189c-6.848,0-12.42,5.572-12.42,12.42s5.572,12.42,12.42,12.42c6.849,0,12.42-5.572,12.42-12.42s-5.571-12.42-12.42-12.42zm0,18.841c-3.54,0-6.42-2.88-6.42-6.42s2.88-6.42,6.42-6.42,6.42,2.88,6.42,6.42-2.88,6.42-6.42,6.42zm41.063,7.208c6.849,0,12.42-5.572,12.42-12.42,0-6.849-5.571-12.42-12.42-12.42s-12.42,5.572-12.42,12.42c0,6.848,5.571,12.42,12.42,12.42zm0-18.841c3.54,0,6.42,2.88,6.42,6.42s-2.88,6.42-6.42,6.42-6.42-2.88-6.42-6.42,2.88-6.42,6.42-6.42zm113.21-147.201h-277v424h277v6h-283v-436h283v6z"/></svg>